<svg width="32" height="32" viewBox="0 0 32 32" fill="none" xmlns="http://www.w3.org/2000/svg">
<path fill-rule="evenodd" clip-rule="evenodd" d="M1.33337 3.78417C1.33337 3.13421 1.59157 2.51087 2.05116 2.05128C2.51075 1.59169 3.13408 1.3335 3.78404 1.3335H28.2134C28.5355 1.33297 28.8545 1.39598 29.1522 1.51892C29.4499 1.64186 29.7205 1.82231 29.9484 2.04995C30.1763 2.27758 30.357 2.54793 30.4803 2.84551C30.6035 3.14309 30.6669 3.46207 30.6667 3.78417V28.2135C30.6671 28.5357 30.6039 28.8547 30.4808 29.1525C30.3577 29.4502 30.1771 29.7207 29.9494 29.9486C29.7217 30.1764 29.4512 30.3572 29.1536 30.4804C28.8559 30.6037 28.5369 30.667 28.2147 30.6668H3.78404C3.4621 30.6668 3.14332 30.6034 2.8459 30.4802C2.54849 30.3569 2.27827 30.1763 2.05069 29.9486C1.8231 29.7209 1.64262 29.4506 1.51954 29.1531C1.39646 28.8556 1.3332 28.5368 1.33337 28.2148V3.78417ZM12.944 12.5175H16.916V14.5122C17.4894 13.3655 18.956 12.3335 21.16 12.3335C25.3854 12.3335 26.3867 14.6175 26.3867 18.8082V26.5708H22.1107V19.7628C22.1107 17.3762 21.5374 16.0295 20.0814 16.0295C18.0614 16.0295 17.2214 17.4815 17.2214 19.7628V26.5708H12.944V12.5175ZM5.61071 26.3882H9.88804V12.3335H5.61071V26.3868V26.3882ZM10.5 7.7495C10.5081 8.11573 10.4429 8.47988 10.3084 8.82059C10.1738 9.16129 9.97251 9.47168 9.71635 9.73354C9.46019 9.99541 9.15431 10.2035 8.81665 10.3455C8.47899 10.4876 8.11636 10.5607 7.75004 10.5607C7.38372 10.5607 7.02109 10.4876 6.68343 10.3455C6.34578 10.2035 6.03989 9.99541 5.78373 9.73354C5.52757 9.47168 5.3263 9.16129 5.19172 8.82059C5.05714 8.47988 4.99198 8.11573 5.00004 7.7495C5.01587 7.03064 5.31255 6.34655 5.82656 5.84375C6.34056 5.34094 7.03101 5.05939 7.75004 5.05939C8.46908 5.05939 9.15953 5.34094 9.67353 5.84375C10.1875 6.34655 10.4842 7.03064 10.5 7.7495Z" fill="white"/>
</svg>
