<svg width="36" height="36" viewBox="0 0 36 36" fill="none" xmlns="http://www.w3.org/2000/svg">
<path d="M31.4205 12.4577C31.4054 11.3216 31.1927 10.1968 30.792 9.13368C30.4445 8.23691 29.9138 7.42248 29.2337 6.74243C28.5537 6.06237 27.7393 5.53166 26.8425 5.18418C25.793 4.79022 24.6842 4.57719 23.5635 4.55418C22.1205 4.48968 21.663 4.47168 18 4.47168C14.337 4.47168 13.8675 4.47168 12.435 4.55418C11.3147 4.57736 10.2065 4.79038 9.15748 5.18418C8.26057 5.53141 7.44602 6.06205 6.76593 6.74213C6.08585 7.42221 5.55522 8.23677 5.20798 9.13368C4.81323 10.1824 4.60067 11.2908 4.57948 12.4112C4.51498 13.8557 4.49548 14.3132 4.49548 17.9762C4.49548 21.6392 4.49548 22.1072 4.57948 23.5412C4.60198 24.6632 4.81348 25.7702 5.20798 26.8217C5.5558 27.7183 6.08683 28.5325 6.76714 29.2123C7.44745 29.8921 8.26208 30.4225 9.15898 30.7697C10.2051 31.1795 11.3135 31.4077 12.4365 31.4447C13.881 31.5092 14.3385 31.5287 18.0015 31.5287C21.6645 31.5287 22.134 31.5287 23.5665 31.4447C24.6872 31.4226 25.796 31.2101 26.8455 30.8162C27.742 30.4683 28.5562 29.9374 29.2362 29.2574C29.9162 28.5774 30.4471 27.7632 30.795 26.8667C31.1895 25.8167 31.401 24.7097 31.4235 23.5862C31.488 22.1432 31.5075 21.6857 31.5075 18.0212C31.5045 14.3582 31.5045 13.8932 31.4205 12.4577ZM17.991 24.9032C14.16 24.9032 11.0565 21.7997 11.0565 17.9687C11.0565 14.1377 14.16 11.0342 17.991 11.0342C19.8301 11.0342 21.5939 11.7648 22.8944 13.0652C24.1949 14.3657 24.9255 16.1295 24.9255 17.9687C24.9255 19.8078 24.1949 21.5716 22.8944 22.8721C21.5939 24.1726 19.8301 24.9032 17.991 24.9032ZM25.2015 12.3947C24.9891 12.3949 24.7787 12.3532 24.5825 12.272C24.3862 12.1908 24.2078 12.0717 24.0577 11.9215C23.9075 11.7713 23.7884 11.593 23.7072 11.3967C23.626 11.2004 23.5843 10.9901 23.5845 10.7777C23.5845 10.5654 23.6263 10.3553 23.7075 10.1592C23.7887 9.96308 23.9078 9.7849 24.0579 9.63482C24.208 9.48474 24.3861 9.36568 24.5822 9.28446C24.7783 9.20324 24.9885 9.16143 25.2007 9.16143C25.413 9.16143 25.6232 9.20324 25.8192 9.28446C26.0153 9.36568 26.1935 9.48474 26.3436 9.63482C26.4937 9.7849 26.6127 9.96308 26.694 10.1592C26.7752 10.3553 26.817 10.5654 26.817 10.7777C26.817 11.6717 26.094 12.3947 25.2015 12.3947Z" fill="white"/>
<path d="M17.991 22.4729C20.4787 22.4729 22.4954 20.4561 22.4954 17.9684C22.4954 15.4806 20.4787 13.4639 17.991 13.4639C15.5032 13.4639 13.4865 15.4806 13.4865 17.9684C13.4865 20.4561 15.5032 22.4729 17.991 22.4729Z" fill="white"/>
</svg>
