<svg width="30" height="26" viewBox="0 0 30 26" fill="none" xmlns="http://www.w3.org/2000/svg">
<path d="M29.8565 3.79756C28.7637 4.26899 27.5744 4.60827 26.3494 4.74042C27.6212 3.98483 28.5736 2.79113 29.028 1.38327C27.8345 2.09323 26.5271 2.59107 25.1637 2.8547C24.5938 2.24551 23.9046 1.7602 23.139 1.42901C22.3734 1.09783 21.5478 0.92786 20.7137 0.929702C17.3387 0.929702 14.6244 3.66542 14.6244 7.02256C14.6244 7.49399 14.6815 7.96542 14.7744 8.41899C9.72082 8.1547 5.21367 5.74042 2.21724 2.04399C1.67126 2.97654 1.38515 4.03837 1.38867 5.11899C1.38867 7.23327 2.46367 9.09756 4.10296 10.194C3.1369 10.1559 2.19347 9.89041 1.34939 9.41899V9.49399C1.34939 12.4547 3.44224 14.9083 6.23153 15.4726C5.70781 15.6086 5.16905 15.6782 4.62796 15.6797C4.23153 15.6797 3.85653 15.6404 3.47796 15.5868C4.24939 18.0011 6.49581 19.7547 9.17081 19.8118C7.07796 21.4511 4.45653 22.4154 1.6101 22.4154C1.09939 22.4154 0.627958 22.3976 0.138672 22.3404C2.83867 24.0726 6.04224 25.0726 9.49224 25.0726C20.6922 25.0726 26.8208 15.794 26.8208 7.74042C26.8208 7.47613 26.8208 7.21184 26.803 6.94756C27.9887 6.0797 29.028 5.0047 29.8565 3.79756Z" fill="white"/>
</svg>
